<svg width="32" height="26" viewBox="0 0 32 26" fill="none" xmlns="http://www.w3.org/2000/svg">
<path d="M8.96005 9.15249L4.34255 13L8.96005 16.8475C9.11318 16.973 9.23996 17.1276 9.33307 17.3023C9.42617 17.477 9.48376 17.6685 9.50251 17.8656C9.52127 18.0627 9.50082 18.2615 9.44234 18.4507C9.38386 18.6399 9.28852 18.8156 9.1618 18.9677C9.03508 19.1198 8.87949 19.2454 8.70402 19.3371C8.52855 19.4288 8.33666 19.4848 8.13941 19.502C7.94217 19.5192 7.74347 19.4971 7.55479 19.4372C7.3661 19.3772 7.19116 19.2804 7.04005 19.1525L1.04005 14.1525C0.871061 14.0117 0.735099 13.8355 0.641794 13.6363C0.548488 13.4372 0.500122 13.2199 0.500122 13C0.500122 12.78 0.548488 12.5628 0.641794 12.3636C0.735099 12.1645 0.871061 11.9883 1.04005 11.8475L7.04005 6.84749C7.34614 6.59664 7.73896 6.47692 8.13293 6.51441C8.52689 6.55189 8.89008 6.74355 9.14337 7.04763C9.39666 7.35171 9.51952 7.74356 9.48518 8.13781C9.45084 8.53207 9.26209 8.89678 8.96005 9.15249ZM30.96 11.8475L24.96 6.84749C24.8089 6.71956 24.634 6.62281 24.4453 6.56282C24.2566 6.50283 24.0579 6.48079 23.8607 6.49797C23.6634 6.51515 23.4715 6.57121 23.2961 6.66291C23.1206 6.75462 22.965 6.88016 22.8383 7.03228C22.7116 7.18441 22.6162 7.36012 22.5578 7.54928C22.4993 7.73844 22.4788 7.9373 22.4976 8.13441C22.5163 8.33151 22.5739 8.52295 22.667 8.69768C22.7601 8.87242 22.8869 9.02699 23.04 9.15249L27.6575 13L23.04 16.8475C22.8869 16.973 22.7601 17.1276 22.667 17.3023C22.5739 17.477 22.5163 17.6685 22.4976 17.8656C22.4788 18.0627 22.4993 18.2615 22.5578 18.4507C22.6162 18.6399 22.7116 18.8156 22.8383 18.9677C22.965 19.1198 23.1206 19.2454 23.2961 19.3371C23.4715 19.4288 23.6634 19.4848 23.8607 19.502C24.0579 19.5192 24.2566 19.4971 24.4453 19.4372C24.634 19.3772 24.8089 19.2804 24.96 19.1525L30.96 14.1525C31.129 14.0117 31.265 13.8355 31.3583 13.6363C31.4516 13.4372 31.5 13.2199 31.5 13C31.5 12.78 31.4516 12.5628 31.3583 12.3636C31.265 12.1645 31.129 11.9883 30.96 11.8475ZM20.5125 0.589987C20.3274 0.522651 20.1308 0.492452 19.9339 0.501115C19.7371 0.509779 19.5439 0.557136 19.3654 0.64048C19.1868 0.723825 19.0265 0.841524 18.8935 0.986856C18.7604 1.13219 18.6573 1.3023 18.59 1.48749L10.59 23.4875C10.4544 23.8613 10.4728 24.2736 10.6411 24.6339C10.8094 24.9942 11.1138 25.2729 11.4875 25.4087C11.6516 25.4693 11.8252 25.5002 12 25.5C12.308 25.5 12.6085 25.4053 12.8608 25.2286C13.1131 25.052 13.3048 24.8019 13.41 24.5125L21.41 2.51249C21.4774 2.32733 21.5076 2.13071 21.4989 1.93388C21.4903 1.73704 21.4429 1.54384 21.3596 1.36531C21.2762 1.18679 21.1585 1.02643 21.0132 0.893393C20.8678 0.76036 20.6977 0.657262 20.5125 0.589987Z" fill="#82BC4F"/>
</svg>
